<svg width="136" height="81" viewBox="0 0 136 81" fill="none" xmlns="http://www.w3.org/2000/svg">
<mask id="path-1-inside-1_611_3849" fill="white">
<path fill-rule="evenodd" clip-rule="evenodd" d="M8 9H0V17H8V9ZM8 73H0V81H8V73ZM128 9H136V17H128V9ZM136 73H128V81H136V73Z"/>
</mask>
<path d="M0 9V5H-4V9H0ZM8 9H12V5H8V9ZM0 17H-4V21H0V17ZM8 17V21H12V17H8ZM0 73V69H-4V73H0ZM8 73H12V69H8V73ZM0 81H-4V85H0V81ZM8 81V85H12V81H8ZM136 9H140V5H136V9ZM128 9V5H124V9H128ZM136 17V21H140V17H136ZM128 17H124V21H128V17ZM128 73V69H124V73H128ZM136 73H140V69H136V73ZM128 81H124V85H128V81ZM136 81V85H140V81H136ZM0 13H8V5H0V13ZM4 17V9H-4V17H4ZM8 13H0V21H8V13ZM4 9V17H12V9H4ZM0 77H8V69H0V77ZM4 81V73H-4V81H4ZM8 77H0V85H8V77ZM4 73V81H12V73H4ZM136 5H128V13H136V5ZM140 17V9H132V17H140ZM128 21H136V13H128V21ZM124 9V17H132V9H124ZM128 77H136V69H128V77ZM132 81V73H124V81H132ZM136 77H128V85H136V77ZM132 73V81H140V73H132Z" fill="white" mask="url(#path-1-inside-1_611_3849)"/>
<path fill-rule="evenodd" clip-rule="evenodd" d="M7 10H1V16H7V10ZM1 9H0V10V16V17H1H3V73H1H0V74V80V81H1H7H8V80V78H128V80V81H129H135H136V80V74V73H135H133V17H135H136V16V10V9H135H129H128V10V12H8V10V9H7H1ZM132 73V17H129H128V16V13H8V16V17H7H4V73H7H8V74V77H128V74V73H129H132ZM1 80V74H7V80H1ZM135 10H129V16H135V10ZM129 74H135V80H129V74Z" fill="#18A0FB"/>
<path d="M3.87891 9V1H8.83984V2.03906H5.08594V4.47656H8.48438V5.51172H5.08594V9H3.87891ZM10.2103 9V3H11.3392V3.95312H11.4017C11.5111 3.63021 11.7038 3.3763 11.9798 3.19141C12.2585 3.00391 12.5736 2.91016 12.9251 2.91016C12.998 2.91016 13.084 2.91276 13.1829 2.91797C13.2845 2.92318 13.3639 2.92969 13.4212 2.9375V4.05469C13.3743 4.04167 13.291 4.02734 13.1712 4.01172C13.0514 3.99349 12.9316 3.98437 12.8118 3.98437C12.5358 3.98437 12.2897 4.04297 12.0736 4.16016C11.86 4.27474 11.6907 4.4349 11.5657 4.64062C11.4407 4.84375 11.3782 5.07552 11.3782 5.33594V9H10.2103ZM16.1793 9.13281C15.7991 9.13281 15.4554 9.0625 15.1481 8.92187C14.8408 8.77865 14.5973 8.57161 14.4176 8.30078C14.2405 8.02995 14.152 7.69792 14.152 7.30469C14.152 6.96615 14.2171 6.6875 14.3473 6.46875C14.4775 6.25 14.6533 6.07682 14.8746 5.94922C15.096 5.82161 15.3434 5.72526 15.6168 5.66016C15.8903 5.59505 16.1689 5.54557 16.4528 5.51172C16.8121 5.47005 17.1038 5.4362 17.3278 5.41016C17.5517 5.38151 17.7145 5.33594 17.8161 5.27344C17.9176 5.21094 17.9684 5.10937 17.9684 4.96875V4.94141C17.9684 4.60026 17.872 4.33594 17.6793 4.14844C17.4892 3.96094 17.2054 3.86719 16.8278 3.86719C16.4345 3.86719 16.1246 3.95443 15.8981 4.12891C15.6741 4.30078 15.5192 4.49219 15.4332 4.70312L14.3356 4.45312C14.4658 4.08854 14.6559 3.79427 14.9059 3.57031C15.1585 3.34375 15.4489 3.17969 15.777 3.07812C16.1051 2.97396 16.4502 2.92188 16.8121 2.92188C17.0517 2.92188 17.3056 2.95052 17.5739 3.00781C17.8447 3.0625 18.0973 3.16406 18.3317 3.3125C18.5687 3.46094 18.7627 3.67318 18.9137 3.94922C19.0648 4.22266 19.1403 4.57813 19.1403 5.01563V9H17.9996V8.17969H17.9528C17.8773 8.33073 17.764 8.47917 17.6129 8.625C17.4619 8.77083 17.2679 8.89193 17.0309 8.98828C16.7939 9.08464 16.5101 9.13281 16.1793 9.13281ZM16.4332 8.19531C16.7562 8.19531 17.0322 8.13151 17.2614 8.00391C17.4931 7.8763 17.6689 7.70964 17.7887 7.50391C17.9111 7.29557 17.9723 7.07292 17.9723 6.83594V6.0625C17.9306 6.10417 17.8499 6.14323 17.7301 6.17969C17.6129 6.21354 17.4788 6.24349 17.3278 6.26953C17.1767 6.29297 17.0296 6.3151 16.8864 6.33594C16.7431 6.35417 16.6233 6.36979 16.527 6.38281C16.3004 6.41146 16.0934 6.45964 15.9059 6.52734C15.721 6.59505 15.5726 6.69271 15.4606 6.82031C15.3512 6.94531 15.2965 7.11198 15.2965 7.32031C15.2965 7.60937 15.4033 7.82812 15.6168 7.97656C15.8304 8.1224 16.1025 8.19531 16.4332 8.19531ZM20.7509 9V3H21.872V3.97656H21.9463C22.0713 3.64583 22.2757 3.38802 22.5595 3.20313C22.8434 3.01563 23.1832 2.92188 23.5791 2.92188C23.9801 2.92188 24.316 3.01563 24.5869 3.20313C24.8603 3.39062 25.0621 3.64844 25.1923 3.97656H25.2548C25.3981 3.65625 25.6259 3.40104 25.9384 3.21094C26.2509 3.01823 26.6233 2.92188 27.0556 2.92188C27.5999 2.92188 28.0439 3.09245 28.3877 3.43359C28.734 3.77474 28.9072 4.28906 28.9072 4.97656V9H27.7392V5.08594C27.7392 4.67969 27.6285 4.38542 27.4072 4.20312C27.1858 4.02083 26.9215 3.92969 26.6142 3.92969C26.234 3.92969 25.9384 4.04687 25.7275 4.28125C25.5166 4.51302 25.4111 4.8112 25.4111 5.17578V9H24.247V5.01172C24.247 4.6862 24.1455 4.42448 23.9423 4.22656C23.7392 4.02865 23.4749 3.92969 23.1494 3.92969C22.928 3.92969 22.7236 3.98828 22.5361 4.10547C22.3512 4.22005 22.2015 4.38021 22.0869 4.58594C21.9749 4.79167 21.9189 5.02995 21.9189 5.30078V9H20.7509ZM33.1136 9.12109C32.5224 9.12109 32.0133 8.99479 31.5862 8.74219C31.1617 8.48698 30.8336 8.12891 30.6018 7.66797C30.3727 7.20443 30.2581 6.66146 30.2581 6.03906C30.2581 5.42448 30.3727 4.88281 30.6018 4.41406C30.8336 3.94531 31.1565 3.57943 31.5706 3.31641C31.9873 3.05339 32.4742 2.92188 33.0315 2.92188C33.3701 2.92188 33.6982 2.97786 34.0159 3.08984C34.3336 3.20182 34.6188 3.3776 34.8714 3.61719C35.124 3.85677 35.3232 4.16797 35.469 4.55078C35.6149 4.93099 35.6878 5.39323 35.6878 5.9375V6.35156H30.9182V5.47656H34.5432C34.5432 5.16927 34.4807 4.89714 34.3557 4.66016C34.2307 4.42057 34.055 4.23177 33.8284 4.09375C33.6044 3.95573 33.3414 3.88672 33.0393 3.88672C32.7112 3.88672 32.4248 3.96745 32.18 4.12891C31.9378 4.28776 31.7503 4.49609 31.6175 4.75391C31.4873 5.00911 31.4221 5.28646 31.4221 5.58594V6.26953C31.4221 6.67057 31.4925 7.01172 31.6331 7.29297C31.7763 7.57422 31.9755 7.78906 32.2307 7.9375C32.4859 8.08333 32.7841 8.15625 33.1253 8.15625C33.3466 8.15625 33.5485 8.125 33.7307 8.0625C33.913 7.9974 34.0706 7.90104 34.2034 7.77344C34.3362 7.64583 34.4378 7.48828 34.5081 7.30078L35.6136 7.5C35.525 7.82552 35.3662 8.11068 35.137 8.35547C34.9104 8.59766 34.6253 8.78646 34.2815 8.92187C33.9404 9.05469 33.5511 9.12109 33.1136 9.12109ZM43.0243 1V9H41.8134V2.21094H41.7665L39.8525 3.46094V2.30469L41.8486 1H43.0243ZM45.0754 7.4375V6.46094L48.5325 1H49.302V2.4375H48.8137L46.3411 6.35156V6.41406H51.0793V7.4375H45.0754ZM48.8684 9V7.14062L48.8762 6.69531V1H50.0207V9H48.8684ZM55.2808 9.10937C54.7444 9.10937 54.2652 9.01693 53.8433 8.83203C53.424 8.64714 53.092 8.39062 52.8472 8.0625C52.605 7.73177 52.4748 7.34896 52.4566 6.91406H53.6832C53.6988 7.15104 53.7782 7.35677 53.9214 7.53125C54.0673 7.70312 54.2574 7.83594 54.4918 7.92969C54.7261 8.02344 54.9865 8.07031 55.273 8.07031C55.5881 8.07031 55.8668 8.01562 56.1089 7.90625C56.3537 7.79687 56.5451 7.64453 56.6832 7.44922C56.8212 7.2513 56.8902 7.02344 56.8902 6.76562C56.8902 6.4974 56.8212 6.26172 56.6832 6.05859C56.5477 5.85286 56.3485 5.69141 56.0855 5.57422C55.8251 5.45703 55.51 5.39844 55.1402 5.39844H54.4644V4.41406H55.1402C55.4371 4.41406 55.6975 4.36068 55.9214 4.25391C56.148 4.14714 56.3251 3.9987 56.4527 3.80859C56.5803 3.61589 56.6441 3.39062 56.6441 3.13281C56.6441 2.88542 56.5881 2.67057 56.4761 2.48828C56.3668 2.30339 56.2105 2.15885 56.0074 2.05469C55.8069 1.95052 55.5699 1.89844 55.2964 1.89844C55.036 1.89844 54.7925 1.94661 54.566 2.04297C54.342 2.13672 54.1597 2.27214 54.0191 2.44922C53.8785 2.6237 53.803 2.83333 53.7925 3.07812H52.6246C52.6376 2.64583 52.7652 2.26562 53.0074 1.9375C53.2522 1.60937 53.5751 1.35286 53.9761 1.16797C54.3772 0.983073 54.8225 0.890625 55.3121 0.890625C55.8251 0.890625 56.2678 0.990885 56.6402 1.19141C57.0152 1.38932 57.3043 1.65365 57.5074 1.98437C57.7131 2.3151 57.8147 2.67708 57.8121 3.07031C57.8147 3.51823 57.6897 3.89844 57.4371 4.21094C57.1871 4.52344 56.8537 4.73307 56.4371 4.83984V4.90234C56.9683 4.98307 57.3798 5.19401 57.6714 5.53516C57.9657 5.8763 58.1115 6.29948 58.1089 6.80469C58.1115 7.24479 57.9892 7.63932 57.7418 7.98828C57.497 8.33724 57.1623 8.61198 56.7379 8.8125C56.3134 9.01042 55.8277 9.10937 55.2808 9.10937ZM59.6405 9V8.125L62.3475 5.32031C62.6366 5.01562 62.8749 4.7487 63.0624 4.51953C63.2525 4.28776 63.3944 4.06771 63.4882 3.85937C63.5819 3.65104 63.6288 3.42969 63.6288 3.19531C63.6288 2.92969 63.5663 2.70052 63.4413 2.50781C63.3163 2.3125 63.1457 2.16276 62.9296 2.05859C62.7134 1.95182 62.4699 1.89844 62.1991 1.89844C61.9126 1.89844 61.6626 1.95703 61.4491 2.07422C61.2356 2.19141 61.0715 2.35677 60.9569 2.57031C60.8423 2.78385 60.785 3.03385 60.785 3.32031H59.6327C59.6327 2.83333 59.7447 2.40755 59.9686 2.04297C60.1926 1.67839 60.4999 1.39583 60.8905 1.19531C61.2811 0.992187 61.7251 0.890625 62.2225 0.890625C62.7251 0.890625 63.1679 0.990885 63.5507 1.19141C63.9361 1.38932 64.2369 1.66016 64.453 2.00391C64.6692 2.34505 64.7772 2.73047 64.7772 3.16016C64.7772 3.45703 64.7212 3.7474 64.6093 4.03125C64.4999 4.3151 64.3085 4.63151 64.035 4.98047C63.7616 5.32682 63.3814 5.7474 62.8944 6.24219L61.3046 7.90625V7.96484H64.9061V9H59.6405ZM66.1018 7.4375V6.46094L69.5588 1H70.3283V2.4375H69.84L67.3674 6.35156V6.41406H72.1057V7.4375H66.1018ZM69.8947 9V7.14062L69.9025 6.69531V1H71.0471V9H69.8947Z" fill="#18A0FB"/>
<rect x="8" y="17" width="120" height="56" rx="4" fill="url(#paint0_linear_611_3849)" fill-opacity="0.8"/>
<g filter="url(#filter0_d_611_3849)">
<path d="M96.27 65.28C95.99 64.92 95.64 64.19 95.03 63.28C94.68 62.78 93.82 61.83 93.56 61.34C93.3726 61.0422 93.3182 60.6797 93.41 60.34C93.567 59.6942 94.1796 59.2658 94.84 59.34C95.3508 59.4426 95.8202 59.693 96.19 60.06C96.4482 60.3032 96.6857 60.5674 96.9 60.85C97.06 61.05 97.1 61.13 97.28 61.36C97.46 61.59 97.58 61.82 97.49 61.48C97.42 60.98 97.3 60.14 97.13 59.39C97 58.82 96.97 58.73 96.85 58.3C96.73 57.87 96.66 57.51 96.53 57.02C96.4112 56.5386 96.3177 56.0512 96.25 55.56C96.1239 54.9317 96.2156 54.2792 96.51 53.71C96.8594 53.3814 97.3719 53.2946 97.81 53.49C98.2506 53.8153 98.5791 54.2697 98.75 54.79C99.0121 55.4304 99.187 56.1031 99.27 56.79C99.43 57.79 99.74 59.25 99.75 59.55C99.75 59.18 99.68 58.4 99.75 58.05C99.8193 57.6851 100.073 57.3823 100.42 57.25C100.718 57.1586 101.033 57.1381 101.34 57.19C101.65 57.2548 101.925 57.4331 102.11 57.69C102.342 58.2734 102.47 58.8926 102.49 59.52C102.517 58.9706 102.611 58.4265 102.77 57.9C102.937 57.6646 103.181 57.4948 103.46 57.42C103.791 57.3596 104.129 57.3596 104.46 57.42C104.731 57.5106 104.968 57.6815 105.14 57.91C105.352 58.4403 105.48 59.0003 105.52 59.57C105.52 59.71 105.59 59.18 105.81 58.83C105.924 58.4906 106.211 58.238 106.562 58.1673C106.913 58.0966 107.275 58.2186 107.512 58.4873C107.749 58.756 107.824 59.1306 107.71 59.47C107.71 60.12 107.71 60.09 107.71 60.53C107.71 60.97 107.71 61.36 107.71 61.73C107.674 62.3152 107.593 62.8968 107.47 63.47C107.296 63.9771 107.054 64.4582 106.75 64.9C106.264 65.44 105.863 66.0502 105.56 66.71C105.485 67.0378 105.451 67.3738 105.46 67.71C105.459 68.0206 105.499 68.33 105.58 68.63C105.171 68.6732 104.759 68.6732 104.35 68.63C103.96 68.57 103.48 67.79 103.35 67.55C103.286 67.4211 103.154 67.3397 103.01 67.3397C102.866 67.3397 102.734 67.4211 102.67 67.55C102.45 67.93 101.96 68.62 101.62 68.66C100.95 68.74 99.57 68.66 98.48 68.66C98.48 68.66 98.66 67.66 98.25 67.3C97.84 66.94 97.42 66.52 97.11 66.24L96.27 65.28Z" fill="white"/>
<path fill-rule="evenodd" clip-rule="evenodd" d="M96.27 65.28C95.99 64.92 95.64 64.19 95.03 63.28C94.68 62.78 93.82 61.83 93.56 61.34C93.3726 61.0422 93.3182 60.6797 93.41 60.34C93.567 59.6942 94.1796 59.2658 94.84 59.34C95.3508 59.4426 95.8202 59.693 96.19 60.06C96.4482 60.3032 96.6857 60.5674 96.9 60.85C97.06 61.05 97.1 61.13 97.28 61.36C97.46 61.59 97.58 61.82 97.49 61.48C97.42 60.98 97.3 60.14 97.13 59.39C97 58.82 96.97 58.73 96.85 58.3C96.73 57.87 96.66 57.51 96.53 57.02C96.4112 56.5386 96.3177 56.0512 96.25 55.56C96.1239 54.9317 96.2156 54.2792 96.51 53.71C96.8594 53.3814 97.3719 53.2946 97.81 53.49C98.2506 53.8153 98.5791 54.2697 98.75 54.79C99.0121 55.4304 99.187 56.1031 99.27 56.79C99.43 57.79 99.74 59.25 99.75 59.55C99.75 59.18 99.68 58.4 99.75 58.05C99.8193 57.6851 100.073 57.3823 100.42 57.25C100.718 57.1586 101.033 57.1381 101.34 57.19C101.65 57.2548 101.925 57.4331 102.11 57.69C102.342 58.2734 102.47 58.8926 102.49 59.52C102.517 58.9706 102.611 58.4265 102.77 57.9C102.937 57.6646 103.181 57.4948 103.46 57.42C103.791 57.3596 104.129 57.3596 104.46 57.42C104.731 57.5106 104.968 57.6815 105.14 57.91C105.352 58.4403 105.48 59.0003 105.52 59.57C105.52 59.71 105.59 59.18 105.81 58.83C105.924 58.4906 106.211 58.238 106.562 58.1673C106.913 58.0966 107.275 58.2186 107.512 58.4873C107.749 58.756 107.824 59.1306 107.71 59.47C107.71 60.12 107.71 60.09 107.71 60.53C107.71 60.97 107.71 61.36 107.71 61.73C107.674 62.3152 107.593 62.8968 107.47 63.47C107.296 63.9771 107.054 64.4582 106.75 64.9C106.264 65.44 105.863 66.0502 105.56 66.71C105.485 67.0378 105.451 67.3738 105.46 67.71C105.459 68.0206 105.499 68.33 105.58 68.63C105.171 68.6732 104.759 68.6732 104.35 68.63C103.96 68.57 103.48 67.79 103.35 67.55C103.286 67.4211 103.154 67.3397 103.01 67.3397C102.866 67.3397 102.734 67.4211 102.67 67.55C102.45 67.93 101.96 68.62 101.62 68.66C100.95 68.74 99.57 68.66 98.48 68.66C98.48 68.66 98.66 67.66 98.25 67.3C97.84 66.94 97.42 66.52 97.11 66.24L96.27 65.28Z" stroke="black" stroke-width="0.75" stroke-linecap="round" stroke-linejoin="round"/>
<path d="M104.75 65.8259V62.3741C104.75 62.1675 104.582 62 104.375 62C104.168 62 104 62.1675 104 62.3741V65.8259C104 66.0325 104.168 66.2 104.375 66.2C104.582 66.2 104.75 66.0325 104.75 65.8259Z" fill="black"/>
<path d="M102.77 65.8246L102.75 62.3711C102.749 62.1649 102.58 61.9988 102.373 62C102.166 62.0012 101.999 62.1693 102 62.3754L102.02 65.8289C102.021 66.035 102.19 66.2012 102.397 66.2C102.604 66.1988 102.771 66.0307 102.77 65.8246Z" fill="black"/>
<path d="M100 62.379L100.02 65.8254C100.021 66.0335 100.19 66.2012 100.397 66.2C100.604 66.1988 100.771 66.0291 100.77 65.821L100.75 62.3746C100.749 62.1665 100.58 61.9988 100.373 62C100.166 62.0012 99.9988 62.1709 100 62.379Z" fill="black"/>
</g>
<defs>
<filter id="filter0_d_611_3849" x="92.1913" y="53.0118" width="16.7461" height="17.8588" filterUnits="userSpaceOnUse" color-interpolation-filters="sRGB">
<feFlood flood-opacity="0" result="BackgroundImageFix"/>
<feColorMatrix in="SourceAlpha" type="matrix" values="0 0 0 0 0 0 0 0 0 0 0 0 0 0 0 0 0 0 127 0" result="hardAlpha"/>
<feOffset dy="1"/>
<feGaussianBlur stdDeviation="0.4"/>
<feColorMatrix type="matrix" values="0 0 0 0 0 0 0 0 0 0 0 0 0 0 0 0 0 0 0.5 0"/>
<feBlend mode="normal" in2="BackgroundImageFix" result="effect1_dropShadow_611_3849"/>
<feBlend mode="normal" in="SourceGraphic" in2="effect1_dropShadow_611_3849" result="shape"/>
</filter>
<linearGradient id="paint0_linear_611_3849" x1="103.5" y1="17" x2="52.5" y2="113" gradientUnits="userSpaceOnUse">
<stop stop-color="#18A0FB"/>
<stop offset="1" stop-color="#18A0FB" stop-opacity="0"/>
</linearGradient>
</defs>
</svg>
