<svg width="24" height="24" viewBox="0 0 24 24" id="coffee" fill="currentColor" xmlns="http://www.w3.org/2000/svg">
<mask id="mask0_678_520" style="mask-type:alpha" maskUnits="userSpaceOnUse" x="0" y="0" width="24" height="24">
<rect width="24" height="24" fill="currentColor"/>
</mask>
<g mask="url(#mask0_678_520)">
<path d="M11 18C9.05 18 7.39583 17.3208 6.0375 15.9625C4.67917 14.6042 4 12.95 4 11V5C4 4.45 4.19583 3.97917 4.5875 3.5875C4.97917 3.19583 5.45 3 6 3H18.5C19.4667 3 20.2917 3.34167 20.975 4.025C21.6583 4.70833 22 5.53333 22 6.5C22 7.46667 21.6583 8.29167 20.975 8.975C20.2917 9.65833 19.4667 10 18.5 10H18V11C18 12.95 17.3208 14.6042 15.9625 15.9625C14.6042 17.3208 12.95 18 11 18ZM6 8H16V5H6V8ZM18 8H18.5C18.9167 8 19.2708 7.85417 19.5625 7.5625C19.8542 7.27083 20 6.91667 20 6.5C20 6.08333 19.8542 5.72917 19.5625 5.4375C19.2708 5.14583 18.9167 5 18.5 5H18V8ZM5 21C4.71667 21 4.47917 20.9042 4.2875 20.7125C4.09583 20.5208 4 20.2833 4 20C4 19.7167 4.09583 19.4792 4.2875 19.2875C4.47917 19.0958 4.71667 19 5 19H19C19.2833 19 19.5208 19.0958 19.7125 19.2875C19.9042 19.4792 20 19.7167 20 20C20 20.2833 19.9042 20.5208 19.7125 20.7125C19.5208 20.9042 19.2833 21 19 21H5Z" fill="currentColor" fill-opacity="0.9"/>
</g>
</svg>
